<svg xmlns="http://www.w3.org/2000/svg" xmlns:xlink="http://www.w3.org/1999/xlink" width="60" height="60" viewBox="0 0 60 60">
		<g transform="translate(26 .491)">
			<path fill="#fff" d="M3.61 14.591a2.22 2.22 0 0 1 3.103.01l.777.763c.859.846.863 2.212.009 3.053l-3.196 3.142 2.71 12.637 8.264-8.129a2.22 2.22 0 0 1 3.103.009l.777.765c.859.845.863 2.211.009 3.052L8.368 40.513l2.709 12.637 20.508-20.172c2.563-2.52 2.55-6.62-.026-9.155l-6.222-6.12c-2.578-2.535-6.746-2.547-9.308-.025 2.562-2.522 2.55-6.62-.026-9.157L9.78 2.401C7.203-.134 3.036-.145.472 2.376l-.232.228L2.949 15.24l.66-.649z"/>
		</g>
		<g transform="translate(0 5.41)">
			<path fill="#fff" d="M31.1 38.81l-.03.03-3.89-3.825 2.565-2.523-2.71-12.637-7.633 7.509-3.89-3.825 10.169-10.001L22.97.902 0 23.496l15.556 15.301 15.557 15.301 2.696-2.652z"/>
		</g>
</svg>